<?xml version="1.0" encoding="utf-8"?>
<!-- Generator: Adobe Illustrator 16.0.0, SVG Export Plug-In . SVG Version: 6.00 Build 0)  -->
<!DOCTYPE svg PUBLIC "-//W3C//DTD SVG 1.1//EN" "http://www.w3.org/Graphics/SVG/1.1/DTD/svg11.dtd">
<svg version="1.1" id="Layer_3" xmlns="http://www.w3.org/2000/svg" xmlns:xlink="http://www.w3.org/1999/xlink" x="0px" y="0px"
	 width="612px" height="792px" viewBox="0 0 612 792" enable-background="new 0 0 612 792" xml:space="preserve">
<path fill="#6D6B67" d="M615.5,625.5h-617V169.931h617V625.5z M171.954,343.135l-2.638-0.082
	c-9.963-0.375-15.922-1.305-17.875-2.789c-1.955-1.483-2.93-5.836-2.93-13.059v-73.304c0-7.223,0.953-11.562,2.856-13.017
	c1.905-1.455,7.887-2.398,17.948-2.83l2.638-0.082v-7.557h-92.16v7.557l2.783,0.082c9.963,0.432,15.897,1.375,17.802,2.83
	c1.904,1.456,2.856,5.794,2.856,13.017v73.304c0,7.224-0.977,11.576-2.93,13.059c-1.955,1.483-7.863,2.413-17.729,2.789
	l-2.783,0.082v7.559h92.16V343.135z M488.28,226.305c-15.56-7.479-33.716-11.22-54.46-11.22c-30.861,0-54.201,8.594-70.021,25.784
	c-3.891-7.839-13.032-14.204-27.425-19.096c-13.225-4.459-27.554-6.688-42.983-6.688c-22.563,0-41.398,4.01-56.503,12.028
	c-15.107,8.02-22.659,18.25-22.659,30.692c0,12.659,7.65,24.311,22.951,34.954c14.393,8.703,28.719,17.441,42.985,26.215
	c15.298,10.934,22.951,23.087,22.951,36.464c0,5.178-0.973,10.607-2.917,16.291c53.55-14.17,98.417-29.56,134.594-46.174
	c51.995-23.949,77.993-47.43,77.993-70.447C512.787,243.747,504.618,234.145,488.28,226.305z M274.956,502.222v-98.497
	c0-7.224,0.981-11.562,2.949-13.017c1.964-1.455,7.912-2.399,17.841-2.831l2.653-0.081v-7.558h-68.278v7.558l2.765,0.081
	c10,0.432,15.945,1.375,17.839,2.831c1.891,1.455,2.839,5.793,2.839,13.017v67.328l-119.433-90.814H79.794v7.558l2.783,0.081
	c9.963,0.432,15.897,1.375,17.802,2.831c1.904,1.455,2.856,5.793,2.856,13.017v73.305c0,7.223-0.977,11.575-2.93,13.059
	c-1.955,1.482-7.863,2.412-17.729,2.789l-2.783,0.08v7.559h68.277v-7.559l-2.637-0.08c-9.963-0.376-15.922-1.306-17.875-2.789
	c-1.955-1.483-2.93-5.837-2.93-13.059v-65.868l120.291,91.061H274.956z M394.075,477.029c0,7.223-0.972,11.575-2.913,13.059
	c-1.941,1.482-7.863,2.412-17.765,2.789l-2.766,0.08v7.559h92.159v-7.559l-2.637-0.08c-9.962-0.376-15.922-1.306-17.876-2.789
	s-2.93-5.837-2.93-13.059v-28.688l50.402-43.886c11.036-9.488,17.116-14.528,18.242-15.121c1.12-0.593,6.029-1.079,14.725-1.457
	l2.637-0.081v-7.558h-59.554v7.558h3.223c9.474,0,14.213,1.024,14.213,3.078c0,1.729-4.154,6.292-12.454,13.689l-37.791,33.505
	l-36.843-33.531c-8.514-7.693-12.673-12.406-12.476-14.142c0.194-1.731,5.956-2.6,17.289-2.6h2.343v-7.558H309.24v7.558l2.931,0.081
	c8.302,0.324,13.261,0.742,14.872,1.253c1.612,0.514,4.078,2.495,7.4,5.944c0.78,0.808,4.249,3.937,10.401,9.381l49.23,44.047
	V477.029z M525.5,533.5h-448v20h448V533.5z"/>
</svg>
