<?xml version="1.0" encoding="utf-8"?>
<!-- Generator: Adobe Illustrator 16.0.0, SVG Export Plug-In . SVG Version: 6.00 Build 0)  -->
<!DOCTYPE svg PUBLIC "-//W3C//DTD SVG 1.1//EN" "http://www.w3.org/Graphics/SVG/1.1/DTD/svg11.dtd">
<svg version="1.1" id="Layer_3" xmlns="http://www.w3.org/2000/svg" xmlns:xlink="http://www.w3.org/1999/xlink" x="0px" y="0px"
	 width="612px" height="792px" viewBox="0 0 612 792" enable-background="new 0 0 612 792" xml:space="preserve">
<path fill="#6D6B67" d="M616.5,624.5h-621V170.941h621V624.5z M159.703,359.974l-2.878-0.089
	c-10.874-0.41-17.377-1.424-19.508-3.043c-2.134-1.619-3.198-6.37-3.198-14.252v-80.003c0-7.883,1.04-12.619,3.118-14.207
	c2.079-1.587,8.608-2.617,19.588-3.088l2.878-0.089v-8.248H59.122v8.248l3.038,0.089c10.874,0.471,17.35,1.501,19.429,3.088
	c2.079,1.589,3.118,6.324,3.118,14.207v80.003c0,7.883-1.066,12.633-3.197,14.252c-2.134,1.618-8.582,2.633-19.349,3.043
	l-3.038,0.089v8.249h100.582V359.974z M504.938,232.467c-16.981-8.164-36.797-12.246-59.437-12.246
	c-33.682,0-59.155,9.38-76.42,28.141c-4.246-8.555-14.223-15.501-29.931-20.841c-14.434-4.866-30.072-7.3-46.912-7.3
	c-24.625,0-45.182,4.377-61.667,13.128c-16.488,8.753-24.73,19.918-24.73,33.497c0,13.816,8.349,26.532,25.049,38.148
	c15.708,9.498,31.344,19.036,46.913,28.611c16.696,11.933,25.048,25.197,25.048,39.797c0,5.651-1.062,11.577-3.184,17.779
	c58.445-15.465,107.412-32.261,146.895-50.394c56.747-26.138,85.121-51.765,85.121-76.885
	C531.686,251.503,522.77,241.023,504.938,232.467z M272.119,533.6V426.102c0-7.885,1.071-12.618,3.218-14.207
	c2.144-1.588,8.635-2.618,19.472-3.089l2.896-0.089v-8.248h-74.518v8.248l3.018,0.089c10.914,0.471,17.402,1.5,19.469,3.089
	c2.064,1.589,3.099,6.323,3.099,14.207v73.48l-130.348-99.113H59.122v8.248l3.038,0.089c10.874,0.471,17.35,1.5,19.429,3.089
	s3.118,6.323,3.118,14.207v80.003c0,7.883-1.066,12.634-3.197,14.252c-2.134,1.618-8.582,2.633-19.349,3.044l-3.038,0.088v8.249
	h74.517v-8.249l-2.878-0.088c-10.874-0.41-17.377-1.425-19.509-3.044c-2.133-1.618-3.198-6.37-3.198-14.252v-71.888L239.337,533.6
	H272.119z M402.124,506.104c0,7.883-1.061,12.634-3.179,14.252c-2.119,1.618-8.582,2.633-19.389,3.044l-3.019,0.088v8.249H477.12
	v-8.249l-2.878-0.088c-10.872-0.41-17.377-1.425-19.51-3.044c-2.133-1.618-3.197-6.37-3.197-14.252v-31.31l55.009-47.896
	c12.045-10.355,18.681-15.856,19.909-16.503c1.223-0.647,6.58-1.178,16.07-1.59l2.878-0.089v-8.248h-64.997v8.248h3.518
	c10.34,0,15.512,1.118,15.512,3.359c0,1.887-4.534,6.867-13.592,14.94l-41.245,36.567l-40.21-36.597
	c-9.291-8.396-13.831-13.539-13.615-15.434c0.212-1.89,6.5-2.837,18.869-2.837h2.557v-8.248H309.536v8.248l3.199,0.089
	c9.06,0.354,14.472,0.81,16.23,1.367c1.76,0.561,4.451,2.723,8.077,6.487c0.852,0.882,4.637,4.296,11.352,10.238l53.729,48.072
	V506.104z"/>
</svg>
