<?xml version="1.0" encoding="utf-8"?>
<!-- Generator: Adobe Illustrator 16.0.0, SVG Export Plug-In . SVG Version: 6.00 Build 0)  -->
<!DOCTYPE svg PUBLIC "-//W3C//DTD SVG 1.1//EN" "http://www.w3.org/Graphics/SVG/1.1/DTD/svg11.dtd">
<svg version="1.1" id="Layer_3" xmlns="http://www.w3.org/2000/svg" xmlns:xlink="http://www.w3.org/1999/xlink" x="0px" y="0px"
	 width="612px" height="792px" viewBox="0 0 612 792" enable-background="new 0 0 612 792" xml:space="preserve">
<path fill="#6D6B67" d="M612,585.059H0V206.941h612V585.059z M135.301,370.604l-3.502-0.095c-13.23-0.438-21.143-1.523-23.736-3.255
	c-2.596-1.731-3.891-6.812-3.891-15.242v-85.56c0-8.43,1.265-13.495,3.794-15.193c2.529-1.698,10.473-2.799,23.833-3.303
	l3.502-0.095v-8.821H12.923v8.821l3.696,0.095c13.23,0.504,21.11,1.605,23.639,3.303c2.529,1.699,3.794,6.763,3.794,15.193v85.56
	c0,8.431-1.298,13.511-3.891,15.242c-2.596,1.731-10.442,2.816-23.542,3.255l-3.696,0.095v8.822h122.378V370.604z M555.349,234.24
	c-20.662-8.73-44.771-13.096-72.317-13.096c-40.98,0-71.974,10.032-92.979,30.095c-5.166-9.149-17.305-16.578-36.417-22.288
	c-17.563-5.204-36.59-7.807-57.079-7.807c-29.96,0-54.972,4.681-75.029,14.04c-20.061,9.361-30.089,21.302-30.089,35.824
	c0,14.776,10.158,28.375,30.477,40.798c19.112,10.158,38.136,20.358,57.079,30.599c20.315,12.761,30.477,26.947,30.477,42.561
	c0,6.044-1.292,12.381-3.874,19.014c71.11-16.539,130.688-34.502,178.727-53.894c69.044-27.954,103.568-55.361,103.568-82.226
	C587.892,254.598,577.044,243.391,555.349,234.24z M272.077,556.29V441.324c0-8.431,1.304-13.494,3.916-15.193
	c2.608-1.698,10.506-2.8,23.691-3.304l3.523-0.095v-8.821h-90.665v8.821l3.672,0.095c13.279,0.504,21.173,1.605,23.688,3.304
	c2.511,1.699,3.77,6.763,3.77,15.193v78.585L85.078,413.911H12.923v8.821l3.696,0.095c13.23,0.504,21.11,1.605,23.639,3.304
	c2.529,1.699,3.794,6.763,3.794,15.193v85.561c0,8.43-1.298,13.511-3.891,15.242c-2.596,1.73-10.442,2.815-23.542,3.255
	l-3.696,0.095v8.821h90.665v-8.821l-3.502-0.095c-13.23-0.439-21.143-1.524-23.736-3.255c-2.596-1.731-3.891-6.813-3.891-15.242
	v-76.881L232.192,556.29H272.077z M430.254,526.885c0,8.43-1.289,13.511-3.867,15.242c-2.578,1.73-10.442,2.815-23.59,3.255
	l-3.673,0.095v8.821h122.378v-8.821L518,545.382c-13.229-0.439-21.143-1.524-23.736-3.255c-2.596-1.731-3.891-6.813-3.891-15.242
	V493.4l66.929-51.223c14.655-11.074,22.729-16.958,24.223-17.65c1.489-0.692,8.007-1.258,19.553-1.7l3.502-0.095v-8.821h-79.082
	v8.821h4.28c12.579,0,18.872,1.197,18.872,3.593c0,2.018-5.515,7.344-16.537,15.979l-50.182,39.107l-48.923-39.139
	c-11.306-8.979-16.829-14.479-16.567-16.505c0.258-2.022,7.909-3.035,22.958-3.035h3.112v-8.821H317.604v8.821l3.892,0.095
	c11.022,0.378,17.607,0.866,19.747,1.463c2.141,0.599,5.415,2.911,9.826,6.938c1.036,0.943,5.642,4.594,13.813,10.949l65.372,51.412
	V526.885z"/>
</svg>
